<?xml version="1.0" encoding="UTF-8" standalone="no" ?>
<!DOCTYPE svg PUBLIC "-//W3C//DTD SVG 1.1//EN" "http://www.w3.org/Graphics/SVG/1.1/DTD/svg11.dtd">
<svg xmlns="http://www.w3.org/2000/svg" xmlns:xlink="http://www.w3.org/1999/xlink" version="1.1" width="500" height="500" viewBox="0 0 500 500" xml:space="preserve">
<desc>Created with Fabric.js 4.6.0</desc>
<defs>
</defs>
<g transform="matrix(0.71 0 0 0.71 250 250)" id="n_fNPiT5IgyBtHTZFHIlw"  >
<path style="stroke: rgb(57,4,61); stroke-width: 0; stroke-dasharray: none; stroke-linecap: butt; stroke-dashoffset: 0; stroke-linejoin: miter; stroke-miterlimit: 4; fill: rgb(120,210,250); fill-rule: nonzero; opacity: 1;" vector-effect="non-scaling-stroke"  transform=" translate(0, 0)" d="M 0 -322.88888 C 178.23467 -322.88888 322.88889 -178.23465999999996 322.88889 0 C 322.88889 178.23466 178.23467 322.88888 0 322.88888 C -178.23467 322.88888 -322.88889 178.23465999999996 -322.88889 0 C -322.88889 -178.23466 -178.23467 -322.88888 0 -322.88888 z" stroke-linecap="round" />
</g>
<g transform="matrix(0.71 0 0 0.71 75.36 153.4)" id="nVVujg5KPK6HZ1gI42xSn"  >
<path style="stroke: rgb(0,0,0); stroke-width: 0; stroke-dasharray: none; stroke-linecap: butt; stroke-dashoffset: 0; stroke-linejoin: miter; stroke-miterlimit: 4; fill: rgb(165,220,105); fill-rule: nonzero; opacity: 1;" vector-effect="non-scaling-stroke"  transform=" translate(0, 0)" d="M -72.8 92.51809 C -72.8 92.51809 -71.2 100.51809 -43.199999999999996 104.51809 C -15.199999999999996 108.51809 -5.023769999999999 107.71809 -1.8237699999999961 95.71809 C 1.376230000000004 83.71809 -15.999999999999996 76.51809 -14.399999999999997 70.11809 C -12.799999999999997 63.71809 1.6000000000000032 47.71809 9.600000000000003 41.31809 C 17.6 34.91809 33.6 2.9180899999999994 33.6 2.9180899999999994 L 65.6 -49.08191 L 72.8 -77.08191 C 72.8 -77.08191 67.2 -97.88190999999999 56 -100.28191 C 44.8 -102.68191 27.2 -106.68191 27.2 -106.68191 L 3.1999999999999993 -80.28191000000001 C 3.1999999999999993 -80.28191000000001 -10.4 -59.48191000000001 -14.400000000000002 -53.08191000000001 C -18.400000000000002 -46.68191000000001 -42.400000000000006 -24.281910000000007 -43.2 -16.28191000000001 C -44 -8.28191000000001 -56 10.918089999999989 -56 14.118089999999988 C -56 17.318089999999987 -60 46.918089999999985 -60 46.918089999999985 L -60 63.71808999999999 z" stroke-linecap="round" />
</g>
<g transform="matrix(0.71 0 0 0.71 317.93 119.44)" id="-BxLXYaDW62nxrqgjCzts"  >
<path style="stroke: rgb(0,0,0); stroke-width: 0; stroke-dasharray: none; stroke-linecap: butt; stroke-dashoffset: 0; stroke-linejoin: miter; stroke-miterlimit: 4; fill: rgb(165,220,105); fill-rule: nonzero; opacity: 1;" vector-effect="non-scaling-stroke"  transform=" translate(0, 0)" d="M -74.16145 -144.34524 L -112.25668999999999 -90.77381 L -195.59001999999998 -60.416669999999996 L -221.7805 0.297620000000002 L -188.44717 43.75 C -188.44717 43.75 -167.79432 9.226190000000003 -129.10384 9.226190000000003 C -90.41335999999998 9.226190000000003 -86.66144999999999 7.440480000000003 -74.16144999999999 9.226190000000003 C -61.66144999999999 11.011900000000002 -24.756689999999985 30.059520000000003 -24.756689999999985 30.059520000000003 L 13.933790000000016 58.63095 L 32.98141000000001 105.05951999999999 L 46.076650000000015 136.87367 L 76.43379000000002 127.08333 L 113.93379000000002 99.10714 L 107.38617000000002 76.48809 L 148.4576 80.65476 L 182.38617000000002 144.34524 L 221.78050000000002 105.05953 C 221.78050000000002 105.05953 175.79510000000002 -23.933340000000015 96.96298000000002 -82.32751000000002 C 18.130860000000013 -140.72167000000002 -74.16145999999998 -144.34524000000002 -74.16145999999998 -144.34524000000002 z" stroke-linecap="round" />
</g>
<g transform="matrix(0.71 0 0 0.71 250.38 287.07)" id="WFXbLGls0w4sc0LlHyaa5"  >
<path style="stroke: rgb(0,0,0); stroke-width: 1; stroke-dasharray: none; stroke-linecap: butt; stroke-dashoffset: 0; stroke-linejoin: miter; stroke-miterlimit: 4; fill: rgb(165,220,105); fill-rule: nonzero; opacity: 1;" vector-effect="non-scaling-stroke"  transform=" translate(0, 0)" d="M -87.10692 -166.42538 L -134.78376 -120.75471999999999 L -146.22641 -74.84277 L -134.78375999999997 -40.251580000000004 L -92.13835999999998 -15.723280000000003 L -48.742129999999975 -15.723280000000003 L -38.050309999999975 11.320749999999997 L -18.553449999999973 40.8805 L -26.100619999999974 79.24528000000001 L 9.748440000000027 170.44025 L 35.534600000000026 166.03772999999998 L 60.691830000000024 140.25157 L 100.31447000000003 73.58489999999999 L 100.31447000000003 25.15722999999999 L 146.22642000000002 -32.70441000000001 L 136.16353 -40.25158000000001 L 109.74844000000002 -49.05661000000001 L 70.75473000000002 -130.18869 L 19.182400000000023 -151.57234 L 9.748440000000022 -135.22014 L -31.132059999999974 -151.57234 L -31.132059999999974 -170.44026 z" stroke-linecap="round" />
</g>
<g transform="matrix(0.71 0 0 0.71 82.72 344.66)" id="LXtQB4B6ezlzz8KXxYAOt"  >
<path style="stroke: rgb(0,0,0); stroke-width: 1; stroke-dasharray: none; stroke-linecap: butt; stroke-dashoffset: 0; stroke-linejoin: miter; stroke-miterlimit: 4; fill: rgb(165,220,105); fill-rule: nonzero; opacity: 1;" vector-effect="non-scaling-stroke"  transform=" translate(0, 0)" d="M -83.21162 -98.68421 L -33.10415999999999 -114.47367999999999 L 29.001100000000008 -68.68420999999998 L 75.31689 -56.57894999999998 L 79.00110000000001 -15.526319999999977 L 83.21163000000001 19.210520000000024 L 68.47479000000001 38.15789000000002 L 54.79058000000001 45.526310000000024 L 36.36953000000001 114.47368000000003 C 36.36953000000001 114.47368000000003 -50.472579999999994 2.368420000000029 -62.05151999999998 -22.894739999999956 C -73.63046999999999 -48.157899999999955 -83.21160999999998 -98.68420999999995 -83.21160999999998 -98.68420999999995 z" stroke-linecap="round" />
</g>
<g transform="matrix(0.71 0 0 0.71 365.81 364.14)" id="AKf5DVMhJaf-WjtqsPlTB"  >
<path style="stroke: rgb(0,0,0); stroke-width: 1; stroke-dasharray: none; stroke-linecap: butt; stroke-dashoffset: 0; stroke-linejoin: miter; stroke-miterlimit: 4; fill: rgb(165,220,105); fill-rule: nonzero; opacity: 1;" vector-effect="non-scaling-stroke"  transform=" translate(0, 0)" d="M -25.09158 36.44689 L -18.13187 2.3809600000000017 L -16.599159999999998 -21.79486 L 15.934070000000006 -47.069590000000005 L 25.091580000000008 -37.179480000000005 L 4.212460000000007 33.51649 L -13.369959999999992 47.069599999999994 z" stroke-linecap="round" />
</g>
<g transform="matrix(0.71 0 0 0.71 250 250)" id="9uiz2N9MgC_Z9tu2TACh-"  >
<g style="" vector-effect="non-scaling-stroke"   >
		<g transform="matrix(0.13 0 0 -0.13 -0.07 0.16)" id="clOrU2QZpxRWDoC7M3rv4"  >
<path style="stroke: none; stroke-width: 1; stroke-dasharray: none; stroke-linecap: butt; stroke-dashoffset: 0; stroke-linejoin: miter; stroke-miterlimit: 4; fill: rgb(0,0,0); fill-rule: nonzero; opacity: 1;" vector-effect="non-scaling-stroke"  transform=" translate(-2559.44, -2558.78)" d="M 2330 5110 C 2120 5089 1879 5035 1695 4968 C 1446 4878 1158 4715 945 4543 C 817 4440 615 4232 522 4108 C 328 3850 182 3553 96 3245 C -95 2564 6 1840 376 1229 C 521 989 795 684 1013 521 C 1644 50 2433 -110 3191 80 C 3344 119 3480 167 3507 193 C 3538 221 3546 270 3526 308 C 3494 369 3454 374 3324 330 C 2817 157 2282 158 1785 330 C 1586 400 1308 546 1158 660 C 1152 665 1209 994 1235 1107 C 1238 1121 1260 1138 1302 1157 C 1390 1198 1424 1231 1462 1307 C 1490 1364 1494 1384 1494 1444 C 1493 1490 1485 1536 1471 1575 C 1452 1628 1450 1647 1456 1746 C 1464 1882 1450 1936 1386 2007 C 1327 2073 1270 2098 1118 2128 L 988 2153 L 762 2326 C 496 2529 519 2522 335 2460 C 270 2438 215 2420 214 2420 C 207 2420 200 2572 206 2619 L 213 2680 L 247 2650 C 275 2625 289 2620 333 2620 C 413 2620 687 2666 714 2684 C 746 2705 764 2758 750 2795 C 744 2810 712 2863 678 2912 C 629 2983 619 3004 631 3010 C 639 3015 683 3047 730 3082 L 814 3145 L 956 3392 C 1072 3595 1110 3653 1170 3717 C 1320 3877 1355 4054 1270 4226 C 1241 4286 1166 4376 1125 4399 C 1106 4410 1106 4411 1135 4436 C 1183 4476 1348 4583 1440 4633 C 1750 4800 2085 4893 2458 4913 C 2510 4916 2528 4914 2522 4906 C 2517 4900 2477 4850 2433 4795 L 2353 4695 L 2039 4586 C 1683 4462 1656 4450 1636 4412 C 1599 4339 1440 3939 1440 3918 C 1440 3889 1464 3850 1613 3643 C 1711 3506 1727 3480 1714 3469 C 1706 3463 1661 3407 1615 3346 C 1569 3285 1501 3199 1465 3155 C 1291 2944 1256 2710 1365 2482 C 1431 2342 1574 2225 1726 2185 C 1805 2165 1915 2166 2035 2189 C 2173 2216 2182 2212 2193 2105 C 2202 2016 2221 1972 2280 1901 C 2348 1820 2353 1787 2315 1660 C 2279 1541 2281 1469 2324 1350 C 2381 1192 2504 898 2532 854 C 2636 691 2814 699 3009 877 C 3090 951 3125 1005 3147 1087 C 3156 1123 3177 1164 3205 1199 C 3229 1230 3261 1284 3277 1320 C 3293 1356 3330 1411 3358 1444 C 3459 1559 3478 1638 3440 1790 C 3407 1923 3410 1929 3585 2109 C 3749 2278 3790 2340 3790 2415 C 3790 2507 3740 2557 3627 2580 C 3510 2603 3490 2611 3457 2645 C 3420 2683 3368 2783 3298 2953 C 3177 3248 3142 3282 2875 3360 L 2736 3400 L 2681 3384 C 2645 3374 2615 3357 2595 3336 L 2565 3303 L 2508 3339 C 2453 3373 2450 3377 2450 3415 C 2450 3473 2414 3521 2348 3551 C 2298 3574 2286 3575 2122 3573 L 1949 3570 L 1972 3612 C 2015 3689 2091 3730 2203 3738 C 2272 3742 2287 3747 2314 3771 C 2339 3793 2345 3806 2345 3840 C 2345 3875 2339 3887 2312 3911 C 2283 3937 2273 3940 2207 3940 C 2063 3940 1951 3892 1854 3787 L 1801 3730 L 1762 3782 C 1702 3865 1660 3928 1660 3936 C 1660 3941 1692 4021 1731 4116 L 1802 4287 L 2123 4400 C 2300 4461 2454 4518 2466 4525 C 2478 4533 2553 4621 2634 4723 L 2781 4907 L 2878 4894 C 3659 4787 4330 4303 4675 3595 C 4716 3513 4769 3384 4794 3309 L 4839 3172 L 4790 3122 C 4753 3084 4736 3056 4722 3010 L 4703 2948 L 4675 3027 C 4632 3145 4608 3187 4523 3285 C 4466 3350 4430 3383 4391 3403 C 4340 3428 4328 3430 4212 3430 C 4103 3430 4083 3427 4053 3409 C 3990 3370 3968 3281 4004 3213 L 4020 3180 L 3953 3130 C 3890 3084 3703 2983 3695 2991 C 3693 2993 3646 3081 3591 3187 C 3499 3360 3490 3383 3490 3432 C 3490 3464 3483 3497 3473 3516 C 3450 3555 3275 3722 3235 3742 C 3169 3775 3039 3812 3012 3805 C 2950 3790 2918 3724 2945 3667 C 2961 3632 2981 3620 3090 3580 C 3128 3567 3168 3539 3218 3494 C 3290 3429 3290 3428 3290 3377 C 3290 3330 3303 3300 3428 3060 C 3555 2817 3570 2793 3604 2776 C 3641 2758 3642 2758 3710 2780 C 3869 2831 4061 2945 4188 3065 L 4252 3124 L 4248 3178 L 4243 3231 L 4273 3228 C 4297 3226 4320 3207 4375 3145 C 4446 3065 4446 3065 4519 2863 C 4601 2637 4616 2615 4682 2616 C 4717 2617 4730 2625 4787 2681 C 4823 2716 4862 2767 4875 2793 L 4898 2841 L 4904 2786 C 4915 2702 4912 2407 4900 2300 C 4862 1969 4735 1594 4568 1325 C 4441 1121 4282 934 4099 774 C 3983 672 3967 645 3990 589 C 4005 555 4046 530 4089 530 C 4143 530 4366 729 4526 921 C 4693 1123 4876 1439 4965 1684 C 5202 2332 5161 3076 4853 3695 C 4472 4459 3763 4970 2905 5096 C 2784 5114 2447 5122 2330 5110 z M 996 4238 C 1066 4191 1101 4133 1107 4057 C 1114 3974 1099 3941 1009 3840 C 953 3778 902 3701 795 3517 L 655 3276 L 540 3194 C 477 3149 415 3100 403 3085 C 367 3043 373 3004 429 2917 L 479 2841 L 452 2836 C 372 2819 355 2824 293 2880 L 233 2934 L 255 3039 C 349 3482 550 3861 873 4207 C 906 4241 936 4270 940 4270 C 944 4270 970 4255 996 4238 z M 2215 3341 C 2215 3290 2231 3274 2359 3193 C 2557 3069 2655 3060 2736 3157 L 2757 3182 L 2851 3155 C 2902 3141 2956 3122 2972 3114 C 3012 3093 3042 3044 3100 2900 C 3184 2695 3245 2580 3300 2517 C 3363 2447 3416 2415 3498 2399 C 3532 2393 3560 2384 3560 2380 C 3560 2376 3500 2313 3427 2239 C 3226 2036 3193 1950 3239 1756 C 3251 1707 3257 1657 3254 1646 C 3250 1634 3221 1594 3188 1556 C 3155 1518 3111 1451 3089 1406 C 3068 1361 3034 1305 3015 1281 C 2992 1253 2972 1211 2957 1162 C 2940 1104 2926 1077 2894 1044 C 2851 1000 2756 940 2729 940 C 2720 940 2701 967 2682 1008 C 2637 1102 2532 1362 2507 1440 C 2485 1509 2486 1524 2525 1660 C 2561 1783 2529 1922 2443 2022 C 2406 2065 2402 2074 2395 2147 C 2384 2271 2346 2331 2249 2381 C 2187 2412 2135 2414 2006 2390 C 1855 2361 1791 2366 1701 2412 C 1623 2452 1562 2521 1530 2607 C 1512 2656 1509 2680 1512 2760 C 1517 2881 1539 2929 1652 3065 C 1698 3120 1753 3190 1774 3220 C 1833 3303 1870 3338 1908 3351 C 1927 3357 1998 3366 2064 3370 C 2131 3374 2192 3378 2200 3378 C 2212 3380 2215 3370 2215 3341 z M 689 2127 L 905 1964 L 1045 1936 C 1122 1921 1197 1902 1211 1894 C 1255 1872 1265 1832 1251 1737 C 1239 1661 1240 1649 1261 1575 C 1313 1387 1305 1370 1127 1306 C 1096 1294 1075 1279 1066 1262 C 1058 1247 1035 1145 1015 1035 C 994 925 974 831 970 827 C 960 816 772 1017 688 1128 C 539 1328 412 1560 337 1776 C 295 1895 242 2106 238 2169 L 235 2213 L 345 2251 C 406 2271 459 2289 464 2289 C 469 2290 571 2217 689 2127 z" stroke-linecap="round" />
</g>
		<g transform="matrix(0.13 0 0 -0.13 13.75 -170.59)" id="dJxEIogptckh56htZjjhn"  >
<path style="stroke: none; stroke-width: 1; stroke-dasharray: none; stroke-linecap: butt; stroke-dashoffset: 0; stroke-linejoin: miter; stroke-miterlimit: 4; fill: rgb(0,0,0); fill-rule: nonzero; opacity: 1;" vector-effect="non-scaling-stroke"  transform=" translate(-2663.1, -3839.39)" d="M 2608 3923 C 2521 3869 2561 3741 2665 3740 C 2717 3740 2747 3761 2760 3808 C 2775 3857 2761 3894 2718 3920 C 2678 3944 2644 3945 2608 3923 z" stroke-linecap="round" />
</g>
		<g transform="matrix(0.13 0 0 -0.13 165.1 153.33)" id="Can5mbWVl3toylggSMTKV"  >
<path style="stroke: none; stroke-width: 1; stroke-dasharray: none; stroke-linecap: butt; stroke-dashoffset: 0; stroke-linejoin: miter; stroke-miterlimit: 4; fill: rgb(0,0,0); fill-rule: nonzero; opacity: 1;" vector-effect="non-scaling-stroke"  transform=" translate(-3798.23, -1410)" d="M 3889 1904 C 3876 1890 3847 1844 3825 1802 C 3787 1729 3781 1723 3715 1688 C 3589 1620 3543 1544 3552 1418 C 3556 1369 3551 1338 3528 1268 C 3513 1220 3500 1159 3500 1132 C 3501 1017 3612 890 3712 890 C 3785 891 3864 951 3910 1040 C 3940 1099 3983 1223 4046 1435 C 4108 1646 4109 1656 4070 1797 C 4043 1899 4016 1930 3955 1930 C 3923 1930 3908 1924 3889 1904 z M 3860 1527 C 3860 1519 3780 1261 3761 1207 C 3750 1176 3735 1141 3727 1129 C 3698 1088 3700 1139 3731 1233 C 3758 1314 3761 1334 3756 1396 C 3750 1456 3752 1469 3767 1482 C 3797 1508 3860 1538 3860 1527 z" stroke-linecap="round" />
</g>
		<g transform="matrix(0.13 0 0 -0.13 163.88 284)" id="IWfwCXxq-BqnmIpNZ8qgL"  >
<path style="stroke: none; stroke-width: 1; stroke-dasharray: none; stroke-linecap: butt; stroke-dashoffset: 0; stroke-linejoin: miter; stroke-miterlimit: 4; fill: rgb(0,0,0); fill-rule: nonzero; opacity: 1;" vector-effect="non-scaling-stroke"  transform=" translate(-3789.12, -430.02)" d="M 3738 514 C 3681 483 3672 407 3719 359 C 3766 312 3852 327 3879 387 C 3894 419 3893 436 3875 475 C 3850 527 3792 544 3738 514 z" stroke-linecap="round" />
</g>
</g>
</g>
</svg>